<svg xmlns="http://www.w3.org/2000/svg" viewBox="0 0 64 64" fill="none">
  <!-- Body -->
  <ellipse cx="32" cy="36" rx="22" ry="20" fill="#E74C3C"/>
  <!-- Belly -->
  <ellipse cx="32" cy="40" rx="14" ry="12" fill="#F1948A"/>
  <!-- Left Eye -->
  <circle cx="24" cy="30" r="5" fill="white"/>
  <circle cx="25" cy="30" r="2.5" fill="#2C3E50"/>
  <circle cx="26" cy="29" r="1" fill="white"/>
  <!-- Right Eye -->
  <circle cx="40" cy="30" r="5" fill="white"/>
  <circle cx="41" cy="30" r="2.5" fill="#2C3E50"/>
  <circle cx="42" cy="29" r="1" fill="white"/>
  <!-- Beak -->
  <path d="M28 35 L32 40 L36 35 Z" fill="#F39C12"/>
  <!-- Left Wing -->
  <ellipse cx="12" cy="38" rx="6" ry="10" fill="#C0392B" transform="rotate(-15 12 38)"/>
  <!-- Right Wing -->
  <ellipse cx="52" cy="38" rx="6" ry="10" fill="#C0392B" transform="rotate(15 52 38)"/>
  <!-- Head Tuft -->
  <path d="M26 18 Q32 8 38 18" stroke="#E74C3C" stroke-width="4" fill="none" stroke-linecap="round"/>
  <circle cx="32" cy="10" r="3" fill="#E74C3C"/>
  <!-- Feet -->
  <path d="M24 54 L20 58 M24 54 L24 58 M24 54 L28 58" stroke="#F39C12" stroke-width="2.5" stroke-linecap="round"/>
  <path d="M40 54 L36 58 M40 54 L40 58 M40 54 L44 58" stroke="#F39C12" stroke-width="2.5" stroke-linecap="round"/>
</svg>
